<svg width="30" height="27" viewBox="0 0 30 27" fill="none" xmlns="http://www.w3.org/2000/svg">
<path d="M13.5022 27C20.9559 27 27 20.9559 27 13.4998C27 6.04409 20.9559 0 13.5022 0C6.04419 0 0 6.04409 0 13.4998C0 20.9559 6.04419 27 13.5022 27Z" fill="#00A8D0"/>
<path d="M8.7688 6.3771C8.7688 8.4517 7.0791 9.7409 4.3828 9.7409H2.3499V12.3093H0V3H4.37299C7.07909 3 8.7688 4.2892 8.7688 6.3771ZM6.4026 6.3771C6.4026 5.353 5.6803 4.7565 4.2521 4.7565H2.3499V7.9877H4.24879C5.68029 7.9877 6.4026 7.3879 6.4026 6.3771Z" fill="white"/>
<path d="M7.337 15.73V18.189H12.014V19.9157H7.337V23.3093H5V14H12.621V15.73H7.337Z" fill="white"/>
<path d="M20.448 12.3093L18.487 9.7144H16.337V12.3093H14V3H18.37C21.069 3 22.756 4.2892 22.756 6.3771C22.756 7.7723 21.991 8.7964 20.68 9.3167L22.945 12.2994L20.448 12.3093ZM18.255 4.7565H16.35V8.001H18.255C19.684 8.001 20.403 7.3879 20.403 6.3771C20.403 5.3663 19.684 4.7565 18.255 4.7565Z" fill="white"/>
<path d="M25.978 21.3208H21.288L20.393 23.3093H18L22.501 14H24.808L29.325 23.3093H26.874L25.978 21.3208ZM25.243 19.6837L23.642 16.121L22.04 19.6837H25.243Z" fill="white"/>
</svg>
